<svg xmlns="http://www.w3.org/2000/svg" viewBox="0 0 860 520" font-family="Arial, Helvetica, sans-serif">
  <!-- Title -->
  <text x="430" y="30" text-anchor="middle" font-size="18" font-weight="bold" fill="#333">Management UI Navigation</text>
  <text x="430" y="50" text-anchor="middle" font-size="11" fill="#888">Page layout and role-based visibility</text>

  <!-- Browser frame -->
  <rect x="50" y="70" width="760" height="430" rx="10" fill="white" stroke="#DDD" stroke-width="2"/>

  <!-- Title bar -->
  <rect x="50" y="70" width="760" height="35" rx="10" fill="#F5F5F5" stroke="#DDD" stroke-width="1"/>
  <rect x="50" y="95" width="760" height="10" fill="#F5F5F5"/>
  <circle cx="72" cy="87" r="6" fill="#FF5F57"/>
  <circle cx="92" cy="87" r="6" fill="#FEBC2E"/>
  <circle cx="112" cy="87" r="6" fill="#28C840"/>
  <text x="430" y="91" text-anchor="middle" font-size="10" fill="#888">CloudVLAN Management</text>

  <!-- Top nav bar -->
  <rect x="50" y="105" width="760" height="35" fill="#4A90D9"/>
  <text x="80" y="127" font-size="12" font-weight="bold" fill="white">CloudVLAN</text>
  <text x="700" y="127" font-size="10" fill="white">alice@acme.corp &#9660;</text>

  <!-- Sidebar -->
  <rect x="50" y="140" width="170" height="360" fill="#F8F9FA" stroke="#EEE" stroke-width="1"/>

  <!-- Network section -->
  <text x="70" y="168" font-size="10" font-weight="bold" fill="#4A90D9">NETWORK</text>
  <rect x="60" y="175" width="150" height="28" rx="4" fill="#4A90D9"/>
  <text x="75" y="194" font-size="10" fill="white">Dashboard</text>
  <rect x="60" y="208" width="150" height="28" rx="4" fill="white"/>
  <text x="75" y="227" font-size="10" fill="#333">CVLANs</text>
  <rect x="60" y="241" width="150" height="28" rx="4" fill="white"/>
  <text x="75" y="260" font-size="10" fill="#333">Nodes</text>
  <rect x="60" y="274" width="150" height="28" rx="4" fill="white"/>
  <text x="75" y="293" font-size="10" fill="#333">Policies</text>

  <!-- All roles badge -->
  <rect x="160" y="170" width="45" height="15" rx="3" fill="#5CB85C"/>
  <text x="182" y="181" text-anchor="middle" font-size="7" fill="white">All roles</text>

  <!-- Identity section -->
  <text x="70" y="323" font-size="10" font-weight="bold" fill="#F0AD4E">IDENTITY</text>
  <rect x="60" y="330" width="150" height="28" rx="4" fill="white"/>
  <text x="75" y="349" font-size="10" fill="#333">Users</text>
  <rect x="60" y="363" width="150" height="28" rx="4" fill="white"/>
  <text x="75" y="382" font-size="10" fill="#333">Groups</text>
  <rect x="60" y="396" width="150" height="28" rx="4" fill="white"/>
  <text x="75" y="415" font-size="10" fill="#333">API Keys</text>

  <!-- Admin only badge -->
  <rect x="130" y="316" width="75" height="15" rx="3" fill="#F0AD4E"/>
  <text x="167" y="327" text-anchor="middle" font-size="7" fill="white">Admin+ only</text>

  <!-- Admin section -->
  <text x="70" y="445" font-size="10" font-weight="bold" fill="#D9534F">ADMIN</text>
  <rect x="60" y="452" width="150" height="28" rx="4" fill="white"/>
  <text x="75" y="471" font-size="10" fill="#333">Audit Logs</text>

  <!-- Super badge -->
  <rect x="130" y="438" width="75" height="15" rx="3" fill="#D9534F"/>
  <text x="167" y="449" text-anchor="middle" font-size="7" fill="white">Admin+ only</text>

  <!-- Main content area -->
  <rect x="230" y="150" width="570" height="340" fill="white"/>

  <!-- Page: Dashboard -->
  <text x="260" y="180" font-size="14" font-weight="bold" fill="#333">Dashboard</text>
  <line x1="250" y1="190" x2="780" y2="190" stroke="#EEE" stroke-width="1"/>

  <!-- Stats cards -->
  <rect x="260" y="205" width="130" height="70" rx="6" fill="#EBF2FA" stroke="#4A90D9" stroke-width="1"/>
  <text x="325" y="230" text-anchor="middle" font-size="9" fill="#4A90D9">CVLANs</text>
  <text x="325" y="258" text-anchor="middle" font-size="22" font-weight="bold" fill="#4A90D9">5</text>

  <rect x="405" y="205" width="130" height="70" rx="6" fill="#F0FAF0" stroke="#5CB85C" stroke-width="1"/>
  <text x="470" y="230" text-anchor="middle" font-size="9" fill="#5CB85C">Nodes</text>
  <text x="470" y="258" text-anchor="middle" font-size="22" font-weight="bold" fill="#5CB85C">42</text>

  <rect x="550" y="205" width="130" height="70" rx="6" fill="#FFF8E1" stroke="#F0AD4E" stroke-width="1"/>
  <text x="615" y="230" text-anchor="middle" font-size="9" fill="#E09C3E">Online</text>
  <text x="615" y="258" text-anchor="middle" font-size="22" font-weight="bold" fill="#E09C3E">38</text>

  <rect x="695" y="205" width="85" height="70" rx="6" fill="#F5F5F5" stroke="#95A5A6" stroke-width="1"/>
  <text x="737" y="230" text-anchor="middle" font-size="9" fill="#7F8C8D">Users</text>
  <text x="737" y="258" text-anchor="middle" font-size="22" font-weight="bold" fill="#7F8C8D">12</text>

  <!-- Pages list -->
  <text x="260" y="305" font-size="11" font-weight="bold" fill="#333">Available Pages</text>

  <!-- Page grid -->
  <rect x="260" y="315" width="120" height="35" rx="4" fill="#EBF2FA" stroke="#4A90D9" stroke-width="1"/>
  <text x="320" y="337" text-anchor="middle" font-size="9" fill="#4A90D9">CVLAN List + Detail</text>

  <rect x="390" y="315" width="120" height="35" rx="4" fill="#EBF2FA" stroke="#4A90D9" stroke-width="1"/>
  <text x="450" y="337" text-anchor="middle" font-size="9" fill="#4A90D9">Node List + Detail</text>

  <rect x="520" y="315" width="120" height="35" rx="4" fill="#EBF2FA" stroke="#4A90D9" stroke-width="1"/>
  <text x="580" y="337" text-anchor="middle" font-size="9" fill="#4A90D9">Policy Editor</text>

  <rect x="650" y="315" width="120" height="35" rx="4" fill="#EBF2FA" stroke="#4A90D9" stroke-width="1"/>
  <text x="710" y="337" text-anchor="middle" font-size="9" fill="#4A90D9">Tenant Settings</text>

  <rect x="260" y="360" width="120" height="35" rx="4" fill="#FFF8E1" stroke="#F0AD4E" stroke-width="1"/>
  <text x="320" y="382" text-anchor="middle" font-size="9" fill="#E09C3E">User Management</text>

  <rect x="390" y="360" width="120" height="35" rx="4" fill="#FFF8E1" stroke="#F0AD4E" stroke-width="1"/>
  <text x="450" y="382" text-anchor="middle" font-size="9" fill="#E09C3E">Group Management</text>

  <rect x="520" y="360" width="120" height="35" rx="4" fill="#FFF8E1" stroke="#F0AD4E" stroke-width="1"/>
  <text x="580" y="382" text-anchor="middle" font-size="9" fill="#E09C3E">API Key Manager</text>

  <rect x="650" y="360" width="120" height="35" rx="4" fill="#FFF0F0" stroke="#D9534F" stroke-width="1"/>
  <text x="710" y="382" text-anchor="middle" font-size="9" fill="#D9534F">Audit Log Viewer</text>

  <rect x="260" y="405" width="120" height="35" rx="4" fill="#EBF2FA" stroke="#4A90D9" stroke-width="1"/>
  <text x="320" y="427" text-anchor="middle" font-size="9" fill="#4A90D9">vRouter Mgmt</text>

  <rect x="390" y="405" width="120" height="35" rx="4" fill="#EBF2FA" stroke="#4A90D9" stroke-width="1"/>
  <text x="450" y="427" text-anchor="middle" font-size="9" fill="#4A90D9">Global Assignments</text>

  <rect x="520" y="405" width="120" height="35" rx="4" fill="#F5F5F5" stroke="#95A5A6" stroke-width="1"/>
  <text x="580" y="427" text-anchor="middle" font-size="9" fill="#7F8C8D">Account Settings</text>

  <rect x="650" y="405" width="120" height="35" rx="4" fill="#EBF2FA" stroke="#4A90D9" stroke-width="1"/>
  <text x="710" y="427" text-anchor="middle" font-size="9" fill="#4A90D9">Node Re-Attest</text>

  <!-- Legend -->
  <rect x="260" y="455" width="10" height="10" rx="2" fill="#EBF2FA" stroke="#4A90D9"/>
  <text x="278" y="464" font-size="8" fill="#555">All roles</text>
  <rect x="340" y="455" width="10" height="10" rx="2" fill="#FFF8E1" stroke="#F0AD4E"/>
  <text x="358" y="464" font-size="8" fill="#555">Admin+</text>
  <rect x="400" y="455" width="10" height="10" rx="2" fill="#FFF0F0" stroke="#D9534F"/>
  <text x="418" y="464" font-size="8" fill="#555">Admin+ (audit)</text>
  <rect x="490" y="455" width="10" height="10" rx="2" fill="#F5F5F5" stroke="#95A5A6"/>
  <text x="508" y="464" font-size="8" fill="#555">All roles (user menu)</text>
</svg>
